<svg id="Layer_1" data-name="Layer 1" xmlns="http://www.w3.org/2000/svg" xmlns:xlink="http://www.w3.org/1999/xlink" viewBox="0 0 4000 4000"><defs><style>.cls-1,.cls-6,.cls-7{fill:none;}.cls-2{clip-path:url(#clip-path);}.cls-10,.cls-3{fill:#b71e2d;}.cls-3,.cls-4,.cls-8,.cls-9{fill-rule:evenodd;}.cls-4{fill:#171a3f;}.cls-5,.cls-8{fill:#fff;}.cls-6{stroke:red;stroke-width:0.57px;}.cls-6,.cls-7{stroke-miterlimit:22.93;}.cls-7{stroke:#fff;stroke-width:2.13px;}.cls-9{fill:#e6e6e6;}.cls-10{font-size:320.83px;font-family:BritannicBold, Britannic Bold;}.cls-11{font-size:161.92px;fill:#030238;font-family:ArialRoundedMTBold, Arial Rounded MT Bold;letter-spacing:-0.01em;}.cls-12{letter-spacing:0em;}</style><clipPath id="clip-path"><rect class="cls-1" width="4000" height="4000"/></clipPath></defs><g class="cls-2"><path class="cls-3" d="M1732.09,2725c211.34-24.87,444.62-214.51,585.37-500.36,187-379.79,139.81-785.55-105.39-906.28a324.75,324.75,0,0,0-46.5-18.58,351.38,351.38,0,0,1,37.28,25.18c115.58,89.34,163.6,238.45,172.21,379.33,10.89,178.14-37.11,363.32-115.44,522.4s-195.82,310-343.66,410c-56.25,38.05-118.36,69.51-183.87,88.28"/><path class="cls-4" d="M1455.05,2685.77c245.43,120.84,596.13-89.37,783.31-469.52s139.95-786.29-105.48-907.14-596.13,89.37-783.31,469.53q-9.45,19.18-18.08,38.44c164.4-333.78,472.33-518.33,687.85-412.22s257,462.8,92.64,796.66S1639.61,2720,1424.07,2613.85c-96.66-47.59-158.28-145.57-182.06-269.28,21.73,157.11,94.12,282.64,213,341.2"/><rect class="cls-5" x="1848.98" y="1633.36" width="1288.96" height="660.7"/><path class="cls-4" d="M1063.94,1504.8c111.49,0,201.88,90.39,201.88,201.88s-90.39,201.89-201.88,201.89-201.88-90.39-201.88-201.89,90.38-201.88,201.88-201.88"/><path class="cls-6" d="M1118.41,1559.48a165.76,165.76,0,1,1-165.75,165.75A165.75,165.75,0,0,1,1118.41,1559.48Z"/><path class="cls-4" d="M1118.41,1522.38c112,0,202.86,90.82,202.86,202.85s-90.82,202.85-202.86,202.85-202.84-90.82-202.84-202.85,90.82-202.85,202.84-202.85"/><path class="cls-4" d="M1118.41,1579.89a145.34,145.34,0,1,1-145.33,145.34A145.34,145.34,0,0,1,1118.41,1579.89Z"/><path class="cls-7" d="M1118.41,1579.89a145.34,145.34,0,1,1-145.33,145.34A145.34,145.34,0,0,1,1118.41,1579.89Z"/><path class="cls-8" d="M1172.14,1529.57a201.59,201.59,0,0,0-36.44-6.46q-8.54-.73-17.29-.73c-112,0-202.84,90.82-202.84,202.85a202.67,202.67,0,0,0,93.17,170.67q6.82,4.41,14,8.25c-3.13-2.22-6.18-4.52-9.18-6.91q-2.52-2-5-4.1A204.64,204.64,0,0,1,929.06,1731c0-113.23,91.78-205,205-205a205.94,205.94,0,0,1,38.07,3.54"/><path class="cls-9" d="M1118.93,1519.23a197.62,197.62,0,0,0-47.17-5.68c-108.83,0-197,88.22-197,197a197.05,197.05,0,0,0,112.72,178.14,199,199,0,0,1-100.76-173.15c0-110,89.15-199.12,199.12-199.12a201,201,0,0,1,33.14,2.76"/><path class="cls-8" d="M1118.41,1695.68a29.56,29.56,0,1,1-29.55,29.55,29.55,29.55,0,0,1,29.55-29.55"/><path class="cls-3" d="M1181.59,1946.86c59.57,173,175.73,383.11,252.11,434.68,41.51,13.21,91.45-4.28,129.83-26.09-44.4,18.39-87.57,28-124.89,13-93.93-80.09-188-272.25-257.05-421.63"/><path class="cls-3" d="M1453.76,2281c36.5-121-2.78-198.65-110.78-237,86,41.7,124.46,119.52,110.78,237"/><path class="cls-3" d="M1475.09,2134.05c-13-92.56,2.83-184.3,68-240.19-115.38,56-90.49,170.5-68,240.19"/><path class="cls-3" d="M1602.47,2015.88c-155.14-244.22,103.91-500.62,337.46-397.88-254-11.82-431.25,137.3-337.46,397.88"/><polygon class="cls-3" points="1326.7 2027.85 1213.04 1915.23 1228.4 1907.47 1326.7 2027.85"/><path class="cls-3" d="M1875.78,1697.73c-105.62,125.55,33,297.29-94,394.58,86.07-98-63.8-265.51,94-394.58"/><path class="cls-3" d="M1770.16,2008.33c13.76,148.24-40.44,248.17-147.55,300,81.12-62.67,131.14-162.58,147.55-300"/><path class="cls-3" d="M1414.27,2430c111.4,10.84,197.88-44.24,262.91-140-75,76.46-164,125.4-262.91,140"/><path class="cls-3" d="M1135.68,1936.94c63.71,148,139,414.9,293.08,476.53-124.12-91.35-218-332.56-293.08-476.53"/><path class="cls-3" d="M1753.18,2009.81C1660.2,1835.59,1720,1761,1820.5,1713c-96.67,61-125.45,156.74-67.32,296.77"/><path class="cls-3" d="M1390.62,2165.2c-45.63-31.18-62.9-72.82-64.24-120.24,11.92,38.93,33.23,78.89,64.24,120.24"/><polygon class="cls-3" points="2387.63 1591.64 3060.54 1633.36 2387.63 1633.36 2387.63 1591.64"/><polygon class="cls-3" points="2223.8 2294.06 3060.54 2294.06 2223.8 2335.79 2223.8 2294.06"/><text class="cls-10" transform="translate(2084.19 1941.65) scale(0.86 1)">Contour</text><text class="cls-11" transform="translate(2174.03 2153.1) scale(1.42 1)">F<tspan class="cls-12" x="95.66" y="0">itness</tspan></text></g></svg>